# xmcd
# 
# Track frame offsets:
#	150
#	12350
#	24107
#	33732
#	48051
#	59821
#	71644
#	82070
#	94021
#	109835
#	119478
#	134007
#
# Disc length: 1908 seconds
#
# Revision: 1
# Processed by: cddbd v1.4PL0 Copyright (c) Steve Scherf et al.
# Submitted via: Audio-CD-Archiv 2.10.438
#
DISCID=a807720c
DTITLE=Ronny - Oh My Darling Caroline
DYEAR=1900
DGENRE=country
TTITLE0=Oh My Darling Caroline
TTITLE1=Ein Stern geht auf
TTITLE2=O Susanna
TTITLE3=Und der Regen, der Rinnt
TTITLE4=Old Charly
TTITLE5=Mexico Moon
TTITLE6=Michaela
TTITLE7=Anna-Maria
TTITLE8=Lu La Lu
TTITLE9=Geisterreiter
TTITLE10=Swanee River
TTITLE11=Goodnight, Irene
EXTD=
EXTT0=
EXTT1=
EXTT2=
EXTT3=
EXTT4=
EXTT5=
EXTT6=
EXTT7=
EXTT8=
EXTT9=
EXTT10=
EXTT11=
PLAYORDER=
